<?xml version="1.0" encoding="UTF-8" standalone="no"?>
<svg width="227px" height="227px" viewBox="0 0 227 227" version="1.1" xmlns="http://www.w3.org/2000/svg" xmlns:xlink="http://www.w3.org/1999/xlink" xmlns:sketch="http://www.bohemiancoding.com/sketch/ns">
    <!-- Generator: Sketch 3.0.4 (8054) - http://www.bohemiancoding.com/sketch -->
    <title>a-logo</title>
    <desc>Created with Sketch.</desc>
    <defs></defs>
    <g id="Page-1" stroke="none" stroke-width="1" fill="none" fill-rule="evenodd" sketch:type="MSPage">
        <g id="a-logo" sketch:type="MSLayerGroup">
            <rect id="Rectangle-path" fill="#CF0039" sketch:type="MSShapeGroup" x="0" y="0" width="226.771" height="226.773"></rect>
            <path d="M143.062,171.096 L134.001,145.394 L91.825,145.394 L82.763,171.096 L58.049,171.096 L102.204,55.771 L124.61,55.771 L168.433,171.096 L143.062,171.096 L143.062,171.096 Z M118.68,102.559 C116.373,95.804 114.067,88.885 112.912,84.601 C111.76,88.885 109.454,95.804 107.146,102.559 L99.732,123.483 L126.094,123.483 L118.68,102.559 L118.68,102.559 Z" id="Shape" fill="#FFFFFF" sketch:type="MSShapeGroup"></path>
            <path d="M53.274,116.621 C52.731,118.238 50.98,119.108 49.363,118.565 L17.2,107.771 C15.584,107.229 14.711,105.478 15.254,103.861 L17.929,95.892 C18.472,94.276 20.223,93.405 21.84,93.948 L54.002,104.742 C55.62,105.285 56.492,107.035 55.949,108.652 L53.274,116.621 L53.274,116.621 Z" id="Shape" fill="#F28B00" sketch:type="MSShapeGroup"></path>
            <path d="M51.519,141.872 C52.061,143.489 51.189,145.241 49.57,145.782 L26.66,153.914 C25.042,154.455 23.293,153.583 22.751,151.966 L20.082,143.996 C19.541,142.379 20.413,140.627 22.032,140.087 L44.941,131.954 C46.558,131.413 48.308,132.285 48.85,133.902 L51.519,141.872 L51.519,141.872 Z" id="Shape" fill="#F28B00" sketch:type="MSShapeGroup"></path>
            <path d="M45.213,68.329 C43.863,69.371 43.615,71.311 44.659,72.662 L59.177,92.161 C60.222,93.511 62.159,93.759 63.51,92.716 L70.159,87.576 C71.509,86.532 71.758,84.593 70.714,83.243 L56.195,63.743 C55.152,62.394 53.213,62.146 51.862,63.189 L45.213,68.329 L45.213,68.329 Z" id="Shape" fill="#F28B00" sketch:type="MSShapeGroup"></path>
            <path d="M172.977,116.621 C173.52,118.238 175.271,119.108 176.888,118.565 L209.052,107.771 C210.667,107.229 211.539,105.478 210.996,103.861 L208.321,95.892 C207.778,94.276 206.027,93.405 204.41,93.948 L172.249,104.742 C170.632,105.285 169.759,107.035 170.302,108.652 L172.977,116.621 L172.977,116.621 Z" id="Shape" fill="#F28B00" sketch:type="MSShapeGroup"></path>
            <path d="M174.732,141.872 C174.189,143.489 175.062,145.241 176.681,145.782 L199.589,153.914 C201.209,154.455 202.958,153.583 203.498,151.966 L206.167,143.996 C206.71,142.379 205.837,140.627 204.218,140.087 L181.31,131.954 C179.692,131.413 177.941,132.285 177.401,133.902 L174.732,141.872 L174.732,141.872 Z" id="Shape" fill="#F28B00" sketch:type="MSShapeGroup"></path>
            <path d="M181.038,68.329 C182.387,69.371 182.636,71.311 181.591,72.662 L167.073,92.161 C166.028,93.511 164.092,93.759 162.741,92.716 L156.091,87.576 C154.741,86.532 154.492,84.593 155.537,83.243 L170.055,63.743 C171.098,62.394 173.038,62.146 174.388,63.189 L181.038,68.329 L181.038,68.329 Z" id="Shape" fill="#F28B00" sketch:type="MSShapeGroup"></path>
        </g>
    </g>
</svg>