<?xml version="1.0" encoding="utf-8"?>
<!-- Generator: Adobe Illustrator 16.0.4, SVG Export Plug-In . SVG Version: 6.00 Build 0)  -->
<!DOCTYPE svg PUBLIC "-//W3C//DTD SVG 1.1//EN" "http://www.w3.org/Graphics/SVG/1.1/DTD/svg11.dtd">
<svg version="1.1" id="Laag_1" xmlns="http://www.w3.org/2000/svg" xmlns:xlink="http://www.w3.org/1999/xlink" x="0px" y="0px"
	 width="28px" height="28px" viewBox="0 0 28 28" enable-background="new 0 0 28 28" xml:space="preserve">
<circle fill="#666666" cx="14.031" cy="14.031" r="14.031"/>
<path fill="#FFFFFF" d="M14.023,13.352c1.846,0,3.34-1.514,3.34-3.38c0-1.864-1.494-3.378-3.34-3.378
	c-1.844,0-3.336,1.516-3.336,3.38C10.688,11.839,12.18,13.352,14.023,13.352"/>
<path fill="#FFFFFF" d="M17.321,14.123c-0.917,0.695-2.059,1.112-3.296,1.112c-1.234,0-2.374-0.417-3.293-1.109
	c-2.774,1.88-2.695,6.225-2.695,6.253c0,0,0,0,0,0.002c0,0.381,2.685,0.691,5.994,0.691c3.308,0,5.993-0.311,5.993-0.691
	c0,0,0,0,0-0.002C20.024,20.351,20.104,16,17.321,14.123"/>
</svg>
