<?xml version="1.0" encoding="UTF-8" standalone="no"?>
<svg width="39px" height="41px" viewBox="0 0 39 41" version="1.1" xmlns="http://www.w3.org/2000/svg" xmlns:xlink="http://www.w3.org/1999/xlink" xmlns:sketch="http://www.bohemiancoding.com/sketch/ns">
    <!-- Generator: Sketch 3.0.4 (8054) - http://www.bohemiancoding.com/sketch -->
    <title>search</title>
    <desc>Created with Sketch.</desc>
    <defs></defs>
    <g id="Page-1" stroke="none" stroke-width="1" fill="none" fill-rule="evenodd" sketch:type="MSPage">
        <path d="M37.644,35.166 L27.949,25.47 C27.906,25.427 27.851,25.407 27.802,25.374 C32.388,19.35 31.946,10.719 26.442,5.218 C20.44,-0.786 10.708,-0.783 4.703,5.218 C-1.299,11.22 -1.299,20.955 4.703,26.956 C9.807,32.058 17.598,32.807 23.508,29.235 C23.543,29.401 23.608,29.56 23.736,29.687 L33.431,39.38 C33.786,39.745 34.386,39.727 34.767,39.35 L37.615,36.504 C37.987,36.127 38.006,35.528 37.644,35.166 Z M6.834,24.829 C2.002,20.001 2.002,12.175 6.834,7.347 C11.658,2.519 19.484,2.519 24.312,7.347 C29.14,12.175 29.14,20.001 24.312,24.829 C19.484,29.657 11.658,29.657 6.834,24.829 Z" id="search" fill="#000000" sketch:type="MSShapeGroup"></path>
    </g>
</svg>
